<svg xmlns="http://www.w3.org/2000/svg" width="20" height="20" viewBox="0 0 20 20">
    <g fill="none" fill-rule="evenodd">
        <path fill="#6D757D" d="M-1215-4729H65V43h-1280z"/>
        <path fill="#FFF" d="M-1215-27H65v70h-1280z"/>
        <path fill="#505050" d="M4.839 10a5.165 5.165 0 0 1 5.155-5.161 5.162 5.162 0 0 1 0 10.323A5.158 5.158 0 0 1 4.84 10h-.001zM15.274 0H4.726A4.739 4.739 0 0 0 0 4.727v10.547C0 17.868 2.131 20 4.726 20h10.548A4.739 4.739 0 0 0 20 15.274V4.727A4.732 4.732 0 0 0 15.274 0zm.855 2.258c-.714 0-1.29.576-1.29 1.29a1.29 1.29 0 1 0 1.29-1.29z"/>
    </g>
</svg>
