<svg xmlns="http://www.w3.org/2000/svg" width="20" height="20" viewBox="0 0 20 20">
    <g fill="none" fill-rule="evenodd">
        <path fill="#6D757D" d="M-1119-4729H161V43h-1280z"/>
        <path fill="#FFF" d="M-1119-27H161v70h-1280z"/>
        <path fill="#505050" d="M17.875.125c.372 0 .695.136.967.408.272.272.408.595.408.967V18c0 .372-.136.695-.408.967a1.321 1.321 0 0 1-.967.408h-16.5c-.372 0-.695-.136-.967-.408A1.321 1.321 0 0 1 0 18V1.5C0 1.128.136.805.408.533c.272-.272.595-.408.967-.408h16.5zm-14.91 16.5h2.879V7.43h-2.88v9.195zM4.383 6.184c.458 0 .852-.165 1.181-.495.33-.329.495-.716.495-1.16 0-.444-.165-.83-.495-1.16a1.612 1.612 0 0 0-1.181-.494c-.459 0-.845.165-1.16.494-.315.33-.473.716-.473 1.16 0 .444.158.831.473 1.16.315.33.701.495 1.16.495zM16.5 16.625v-5.027c0-1.433-.2-2.478-.602-3.137-.544-.83-1.475-1.246-2.793-1.246-.658 0-1.246.157-1.761.473-.43.257-.745.587-.946.988h-.043V7.43h-2.75v9.195h2.836V12.07c0-.716.1-1.26.301-1.632.287-.487.76-.73 1.418-.73.659 0 1.089.271 1.29.815.142.344.214.888.214 1.633v4.469H16.5z"/>
    </g>
</svg>
