<svg xmlns="http://www.w3.org/2000/svg" width="20" height="20" viewBox="0 0 20 20">
    <g fill="none" fill-rule="evenodd">
        <path fill="#6D757D" d="M-1167-4729H113V43h-1280z"/>
        <path fill="#FFF" d="M-1167-27H113v70h-1280z"/>
        <path fill="#505050" d="M17.187.125c.573 0 1.06.2 1.461.602.401.4.602.888.602 1.46v15.126c0 .572-.2 1.06-.602 1.46a1.989 1.989 0 0 1-1.46.602H2.061c-.572 0-1.06-.2-1.46-.602A1.989 1.989 0 0 1 0 17.313V2.188c0-.573.2-1.06.602-1.461a1.989 1.989 0 0 1 1.46-.602h15.125zm-2.105 6.832a6.251 6.251 0 0 0 1.418-1.46 5.746 5.746 0 0 1-1.633.429 2.888 2.888 0 0 0 1.246-1.547 5.344 5.344 0 0 1-1.804.687c-.545-.601-1.218-.902-2.02-.902-.573 0-1.096.158-1.568.473a2.849 2.849 0 0 0-1.053 1.267c-.23.53-.272 1.11-.129 1.74a7.703 7.703 0 0 1-3.266-.88A8.478 8.478 0 0 1 3.695 4.68c-.258.43-.386.895-.386 1.396a2.799 2.799 0 0 0 1.289 2.385 2.934 2.934 0 0 1-1.29-.387v.043c0 .688.215 1.29.645 1.805.43.516.974.845 1.633.988-.401.086-.83.1-1.29.043a2.63 2.63 0 0 0 .99 1.397 2.69 2.69 0 0 0 1.632.537c-1.031.802-2.191 1.203-3.48 1.203H2.75a7.978 7.978 0 0 0 4.34 1.246c1.633 0 3.094-.415 4.383-1.246 1.145-.745 2.048-1.762 2.707-3.05a8.262 8.262 0 0 0 .902-3.74v-.343z"/>
    </g>
</svg>
